<svg width="333" height="141" viewBox="0 0 333 141" fill="none" xmlns="http://www.w3.org/2000/svg">
<path d="M58.3632 47.9185C55.4605 54.2251 56.197 38.5838 50.9605 35.2921C40.6068 28.7837 22.9797 37.1239 21.4605 47.9185C20.1026 57.5677 40.9806 66.6169 40.9806 66.6169C40.9806 66.6169 55.7651 73.8043 58.3632 77.9008C60.9613 81.9973 62.0774 87.593 59.1674 92.9378C54.3802 101.73 40.7961 105.064 30.9605 100.052C24.0146 96.5132 19.4993 91.1233 21.4606 84.4962C23.7612 76.7224 38.8597 68.6617 43.4806 75.6672C46.361 80.0341 28.981 92.905 40.981 88.2802M149.959 35.2921C137.459 43.436 218.459 35.2921 218.459 35.2921C219.14 37.2054 181.78 39.1917 175.959 54.2603C172.589 62.9843 172.031 77.999 184.959 102.971" stroke="url(#paint0_linear)" stroke-width="4" stroke-miterlimit="10"/>
<path d="M214.305 94H209.423L203.563 84.1855C203.026 83.2741 202.505 82.501 202.001 81.8662C201.496 81.2152 200.975 80.6862 200.438 80.2793C199.917 79.8724 199.348 79.5794 198.729 79.4004C198.127 79.2051 197.443 79.1074 196.678 79.1074H193.309V94H189.208V58.9902H199.657C201.187 58.9902 202.595 59.1855 203.881 59.5762C205.183 59.9505 206.306 60.5283 207.25 61.3096C208.21 62.0908 208.959 63.0674 209.496 64.2393C210.033 65.3949 210.302 66.7539 210.302 68.3164C210.302 69.5371 210.114 70.6602 209.74 71.6855C209.382 72.6947 208.861 73.598 208.177 74.3955C207.51 75.193 206.696 75.8766 205.736 76.4463C204.792 76.9997 203.726 77.431 202.538 77.7402V77.8379C203.124 78.0983 203.628 78.3994 204.052 78.7412C204.491 79.0667 204.906 79.4574 205.297 79.9131C205.687 80.3688 206.07 80.8896 206.444 81.4756C206.835 82.0452 207.266 82.7126 207.738 83.4775L214.305 94ZM193.309 62.7012V75.3965H198.876C199.901 75.3965 200.845 75.2419 201.708 74.9326C202.587 74.6234 203.344 74.1839 203.978 73.6143C204.613 73.0283 205.109 72.3203 205.468 71.4902C205.826 70.6439 206.005 69.6999 206.005 68.6582C206.005 66.7865 205.394 65.3298 204.174 64.2881C202.969 63.2301 201.219 62.7012 198.925 62.7012H193.309ZM237.694 94H219.139V58.9902H236.913V62.7012H223.241V74.3467H235.887V78.0332H223.241V90.2891H237.694V94ZM272.655 94H267.626L249.608 66.0947C249.152 65.3949 248.778 64.6624 248.485 63.8975H248.339C248.469 64.6462 248.534 66.2493 248.534 68.707V94H244.432V58.9902H249.755L267.284 86.4561C268.016 87.5954 268.488 88.3766 268.7 88.7998H268.798C268.635 87.7907 268.553 86.0736 268.553 83.6484V58.9902H272.655V94ZM281.835 94V58.9902H291.503C303.84 58.9902 310.009 64.6787 310.009 76.0557C310.009 81.4593 308.291 85.805 304.857 89.0928C301.439 92.3643 296.858 94 291.112 94H281.835ZM285.936 62.7012V90.2891H291.161C295.751 90.2891 299.323 89.0602 301.879 86.6025C304.434 84.1449 305.712 80.6618 305.712 76.1533C305.712 67.1852 300.943 62.7012 291.405 62.7012H285.936Z" fill="url(#paint1_linear)"/>
<path d="M105.179 94H101.102V70.5137C101.102 68.6582 101.216 66.3877 101.444 63.7021H101.346C100.956 65.2809 100.606 66.4121 100.297 67.0957L88.3337 94H86.3318L74.3933 67.291C74.0515 66.5098 73.7016 65.3135 73.3435 63.7021H73.2458C73.3761 65.1019 73.4412 67.3887 73.4412 70.5625V94H69.4861V58.9902H74.906L85.6482 83.4043C86.4783 85.276 87.0154 86.6758 87.2595 87.6035H87.406C88.1059 85.6829 88.6674 84.2507 89.0906 83.3066L100.052 58.9902H105.179V94ZM141.508 94H136.967L133.256 84.1855H118.412L114.921 94H110.355L123.783 58.9902H128.031L141.508 94ZM131.913 80.499L126.42 65.582C126.241 65.0938 126.062 64.3125 125.883 63.2383H125.785C125.622 64.2311 125.435 65.0124 125.223 65.582L119.779 80.499H131.913ZM171.781 94H166.898L161.039 84.1855C160.502 83.2741 159.981 82.501 159.476 81.8662C158.972 81.2152 158.451 80.6862 157.914 80.2793C157.393 79.8724 156.823 79.5794 156.205 79.4004C155.603 79.2051 154.919 79.1074 154.154 79.1074H150.785V94H146.683V58.9902H157.133C158.663 58.9902 160.07 59.1855 161.356 59.5762C162.658 59.9505 163.781 60.5283 164.725 61.3096C165.686 62.0908 166.434 63.0674 166.971 64.2393C167.509 65.3949 167.777 66.7539 167.777 68.3164C167.777 69.5371 167.59 70.6602 167.216 71.6855C166.858 72.6947 166.337 73.598 165.653 74.3955C164.986 75.193 164.172 75.8766 163.212 76.4463C162.268 76.9997 161.202 77.431 160.013 77.7402V77.8379C160.599 78.0983 161.104 78.3994 161.527 78.7412C161.967 79.0667 162.382 79.4574 162.772 79.9131C163.163 80.3688 163.545 80.8896 163.92 81.4756C164.31 82.0452 164.742 82.7126 165.214 83.4775L171.781 94ZM150.785 62.7012V75.3965H156.351C157.377 75.3965 158.321 75.2419 159.183 74.9326C160.062 74.6234 160.819 74.1839 161.454 73.6143C162.089 73.0283 162.585 72.3203 162.943 71.4902C163.301 70.6439 163.48 69.6999 163.48 68.6582C163.48 66.7865 162.87 65.3298 161.649 64.2881C160.445 63.2301 158.695 62.7012 156.4 62.7012H150.785Z" fill="url(#paint2_linear)"/>
<defs>
<linearGradient id="paint0_linear" x1="119.734" y1="33" x2="119.734" y2="102.971" gradientUnits="userSpaceOnUse">
<stop stop-color="#FF630C"/>
<stop offset="0.484375" stop-color="white"/>
</linearGradient>
<linearGradient id="paint1_linear" x1="248.461" y1="40" x2="248.461" y2="107" gradientUnits="userSpaceOnUse">
<stop stop-color="#FF630C"/>
<stop offset="0.583333" stop-color="white"/>
</linearGradient>
<linearGradient id="paint2_linear" x1="118.461" y1="40" x2="118.461" y2="107" gradientUnits="userSpaceOnUse">
<stop stop-color="#FF630C"/>
<stop offset="0.583333" stop-color="white"/>
</linearGradient>
</defs>
</svg>
